<?xml version="1.0" encoding="utf-8"?>
<!-- Generator: Adobe Illustrator 24.0.1, SVG Export Plug-In . SVG Version: 6.00 Build 0)  -->
<svg version="1.1" id="Layer_1" xmlns="http://www.w3.org/2000/svg" xmlns:xlink="http://www.w3.org/1999/xlink" x="0px" y="0px"
	 viewBox="0 0 250 250" style="enable-background:new 0 0 250 250;" xml:space="preserve">
<style type="text/css">
	.st0{fill:#727272;stroke:#000000;stroke-width:5;stroke-miterlimit:10;}
	.st1{fill:none;stroke:#000000;stroke-width:5;stroke-miterlimit:10;}
</style>
<path class="st0" d="M188.18,62.82c0,0.03-0.01,0.06-0.02,0.09l-1.52,8.07c-0.18,2.34-1.17,4.54-2.81,6.21l-2.85,2.91
	c-1,1.02-2.23,1.78-3.59,2.24l-0.76,0.25c-1.98,0.66-3.26,2.57-3.13,4.65l0.62,1.59c1.64,4.19,1.46,8.92-0.7,12.86
	c-0.18,0.32-0.35,0.6-0.52,0.83l-6.25,6.96c-2.58,3.56-6.64,5.76-11.03,5.98l-1.2,0.06c-2.33,0.12-4,2.26-3.56,4.55l1.1,5.66
	l-35.36,35.36l10.61,10.61l44.82-40.55c1.23-1.12,2.43-2.26,3.6-3.43c16.76-16.76,27.03-38.98,28.86-62.73"/>
<path class="st0" d="M184.55,44.98c-25.4,1.95-49.09,13.57-66.19,32.47l-40.55,44.82l10.61,10.61l35.36-35.36l5.65,1.1
	c2.28,0.44,4.43-1.24,4.54-3.56l0.06-1.2c0.22-4.4,2.42-8.46,5.99-11.04l6.96-6.25c0.23-0.17,0.52-0.34,0.83-0.52
	c3.94-2.16,8.68-2.34,12.87-0.71l1.59,0.62c2.08,0.13,3.98-1.16,4.64-3.13l0.26-0.77c0.46-1.35,1.22-2.58,2.24-3.58l2.91-2.86
	c1.67-1.64,3.87-2.64,6.2-2.81l8.9-0.66L189.6,64c5.13,3.26,11.73,3.47,16.75,0.05c8.48-5.77,8.87-17.74,1.18-24.09
	c-0.48-0.4-0.98-0.76-1.5-1.09c-5.88-3.71-13.63-2.39-18.34,2.72L184.55,44.98z"/>
<path class="st0" d="M37.46,183.07l-10.74-10.74c-3.09-3.09-3.09-8.09,0-11.18l39.03-39.03c3.09-3.09,8.09-3.09,11.18,0l10.74,10.74
	c3.09,3.09,3.09,8.09,0,11.18l-39.03,39.03C45.55,186.16,40.55,186.16,37.46,183.07z"/>
<line class="st0" x1="64.62" y1="123.96" x2="86.18" y2="145.53"/>
<line class="st0" x1="54.28" y1="134.28" x2="75.84" y2="155.84"/>
<line class="st0" x1="43.67" y1="144.88" x2="65.24" y2="166.45"/>
<line class="st1" x1="33.06" y1="155.49" x2="54.63" y2="177.06"/>
<path class="st0" d="M77.04,222.98L66.3,212.24c-3.09-3.09-3.09-8.09,0-11.18l39.03-39.03c3.09-3.09,8.09-3.09,11.18,0l10.74,10.74
	c3.09,3.09,3.09,8.09,0,11.18l-39.03,39.03C85.13,226.07,80.13,226.07,77.04,222.98z"/>
<line class="st0" x1="104.2" y1="163.87" x2="125.77" y2="185.44"/>
<line class="st0" x1="93.86" y1="174.19" x2="115.43" y2="195.76"/>
<line class="st0" x1="83.25" y1="184.8" x2="104.82" y2="206.36"/>
<line class="st1" x1="72.65" y1="195.4" x2="94.21" y2="216.97"/>
</svg>
