<?xml version="1.0" encoding="utf-8"?>
<!-- Generator: Adobe Illustrator 24.0.1, SVG Export Plug-In . SVG Version: 6.00 Build 0)  -->
<svg version="1.1" id="Layer_1" xmlns="http://www.w3.org/2000/svg" xmlns:xlink="http://www.w3.org/1999/xlink" x="0px" y="0px"
	 viewBox="0 0 480 480" style="enable-background:new 0 0 480 480;" xml:space="preserve">
<style type="text/css">
	.st0{fill-opacity:0;stroke:#9F712D;stroke-width:5;stroke-miterlimit:10;}
	.st1{fill-opacity:0;stroke:#9F712D;stroke-width:5;stroke-opacity:0.14;}
	.st2{fill:#D4EEFF;fill-opacity:0;stroke:#9F712D;stroke-width:5;stroke-miterlimit:10;}
	.st3{fill:#D4EEFF;fill-opacity:0;stroke:#9F712D;stroke-width:5;stroke-opacity:0.14;}
	.st4{fill-opacity:0;stroke:#66CCCC;stroke-width:5;stroke-miterlimit:10;}
	.st5{fill-opacity:0;stroke:#66CCCC;stroke-width:5;stroke-opacity:0.14;}
	.st6{fill:#D6C59F;stroke:#9F562D;stroke-width:3;stroke-miterlimit:10;}
	.st7{fill:#D6C59F;stroke:#9F562D;stroke-width:5;stroke-miterlimit:10;}
	.st8{fill:#552100;stroke:#000000;stroke-width:2;stroke-miterlimit:10;}
	.st9{fill:#552100;stroke:#000000;stroke-miterlimit:10;}
</style>
<g>
	<g>
		<path id="e6hduhvNRQ" class="st0" d="M241.8,45c4.4-8.7,10.7-16.2,18.4-21.9c2.1-1.6,1.6-1.2,5-3.7c3.7-2.8,8.2-4.3,12.8-4.3
			c2.6,0,2.7,0,5.2,0s3.6,3.3,1.6,4.9c-4.8,3.9-8.9,7.2-12.6,10.2c-7.2,5.8-11.4,14.7-11.4,24.1c0,1.7,0,6,0,13
			c-0.9-0.1-5.6-0.3-14-0.8c-9.6,0-14.9,0-16,0C236.8,55,240.4,47.8,241.8,45z"/>
	</g>
	<g>
		<g>
			<path id="e6hduhvNRQ_1_" class="st1" d="M241.8,45c4.4-8.7,10.7-16.2,18.4-21.9c2.1-1.6,1.6-1.2,5-3.7c3.7-2.8,8.2-4.3,12.8-4.3
				c2.6,0,2.7,0,5.2,0s3.6,3.3,1.6,4.9c-4.8,3.9-8.9,7.2-12.6,10.2c-7.2,5.8-11.4,14.7-11.4,24.1c0,1.7,0,6,0,13
				c-0.9-0.1-5.6-0.3-14-0.8c-9.6,0-14.9,0-16,0C236.8,55,240.4,47.8,241.8,45z"/>
		</g>
	</g>
</g>
<g>
	<g>
		<path id="j1FQ3xl6R" class="st0" d="M215.1,436.3c8.9,2.4,17.1,7.2,23.6,13.7l0,0l0,0c6.6-6.5,14.7-11.3,23.6-13.7
			c19.3-5.3-2.7,0.7,0,0C320.8,420.4,363.9,371,371.7,311c3.4-26.2,10-76.8,15.7-120.7c0.7-5.6-3.3-10.8-8.9-11.5
			c-28.3-3.5-7.6-0.9-12-1.5c-86.1-10.8-173.3-10.6-259.4,0.4c-3.7,0.5,19.6-2.5-7.9,1c-5.8,0.7-9.8,6-9.1,11.8
			c5.7,43.9,12.3,94.3,15.7,120.5C113.7,371,156.8,420.4,215.1,436.3C217.8,437,195.8,431,215.1,436.3z"/>
	</g>
	<g>
		<g>
			<path id="j1FQ3xl6R_1_" class="st1" d="M215.1,436.3c8.9,2.4,17.1,7.2,23.6,13.7l0,0l0,0c6.6-6.5,14.7-11.3,23.6-13.7
				c19.3-5.3-2.7,0.7,0,0C320.8,420.4,363.9,371,371.7,311c3.4-26.2,10-76.8,15.7-120.7c0.7-5.6-3.3-10.8-8.9-11.5
				c-28.3-3.5-7.6-0.9-12-1.5c-86.1-10.8-173.3-10.6-259.4,0.4c-3.7,0.5,19.6-2.5-7.9,1c-5.8,0.7-9.8,6-9.1,11.8
				c5.7,43.9,12.3,94.3,15.7,120.5C113.7,371,156.8,420.4,215.1,436.3C217.8,437,195.8,431,215.1,436.3z"/>
		</g>
	</g>
</g>
<g>
	<g>
		<path id="f1cBCfHcs3" class="st2" d="M340.1,81.7c29.9,6.2,52.8,31,57.1,62c0.6,4-0.2-1.7,1.5,10.8c0.6,4.7-3.2,8.8-7.8,8.2
			c-30.2-3.9-16-2.1-22.3-2.9c-85.4-11-171.8-11-257.1,0c-6.3,0.8,7.9-1-22.3,2.9c-4.6,0.6-8.5-3.5-7.8-8.2c1.7-12.5,0.8-6,1.4-9.9
			c4.4-31.6,27.7-56.9,58.1-63.1c19.8-4.1,30.1-6.2,50.3-10.3c32.3-6.6,65.5-6.6,97.8,0C309.1,75.4,320.1,77.6,340.1,81.7z"/>
	</g>
	<g>
		<g>
			<path id="f1cBCfHcs3_1_" class="st3" d="M340.1,81.7c29.9,6.2,52.8,31,57.1,62c0.6,4-0.2-1.7,1.5,10.8c0.6,4.7-3.2,8.8-7.8,8.2
				c-30.2-3.9-16-2.1-22.3-2.9c-85.4-11-171.8-11-257.1,0c-6.3,0.8,7.9-1-22.3,2.9c-4.6,0.6-8.5-3.5-7.8-8.2c1.7-12.5,0.8-6,1.4-9.9
				c4.4-31.6,27.7-56.9,58.1-63.1c19.8-4.1,30.1-6.2,50.3-10.3c32.3-6.6,65.5-6.6,97.8,0C309.1,75.4,320.1,77.6,340.1,81.7z"/>
		</g>
	</g>
</g>
<g>
	<g>
		<path id="a4gF6D0tEa" class="st4" d="M328.8,359.8c0,11.1-9,20.2-20.2,20.2c-32,0-107.7,0-139.7,0c-11.1,0-20.2-9-20.2-20.2
			c0-46,0-163,0-208.8c0-11.6,9.4-21.1,21.1-21.1c31.8,0,106.1,0,137.9,0c11.6,0,21,9.4,21,21.1
			C328.8,196.8,328.8,313.9,328.8,359.8z"/>
	</g>
	<g>
		<g>
			<path id="a4gF6D0tEa_1_" class="st5" d="M328.8,359.8c0,11.1-9,20.2-20.2,20.2c-32,0-107.7,0-139.7,0c-11.1,0-20.2-9-20.2-20.2
				c0-46,0-163,0-208.8c0-11.6,9.4-21.1,21.1-21.1c31.8,0,106.1,0,137.9,0c11.6,0,21,9.4,21,21.1
				C328.8,196.8,328.8,313.9,328.8,359.8z"/>
		</g>
	</g>
</g>
<g>
	<g>
		<path id="b4Go9BulPy" class="st4" d="M310.6,204.4c0,4.5-3.6,8.1-8.1,8.1c-27.1,0-100.4,0-127.5,0c-4.5,0-8.1-3.6-8.1-8.1
			c0-4.9,0-11.4,0-16.3c0-4.5,3.6-8.1,8.1-8.1c27.1,0,100.4,0,127.5,0c4.5,0,8.1,3.6,8.1,8.1C310.6,193,310.6,199.5,310.6,204.4z"/>
	</g>
	<g>
		<g>
			<path id="b4Go9BulPy_1_" class="st5" d="M310.6,204.4c0,4.5-3.6,8.1-8.1,8.1c-27.1,0-100.4,0-127.5,0c-4.5,0-8.1-3.6-8.1-8.1
				c0-4.9,0-11.4,0-16.3c0-4.5,3.6-8.1,8.1-8.1c27.1,0,100.4,0,127.5,0c4.5,0,8.1,3.6,8.1,8.1C310.6,193,310.6,199.5,310.6,204.4z"
				/>
		</g>
	</g>
</g>
<g>
	<g>
		<path id="a2QKPf4T0f" class="st4" d="M310.6,268.1c0,4.5-3.6,8.1-8.1,8.1c-27.1,0-100.4,0-127.5,0c-4.5,0-8.1-3.6-8.1-8.1
			c0-4.9,0-11.4,0-16.3c0-4.5,3.6-8.1,8.1-8.1c27.1,0,100.4,0,127.5,0c4.5,0,8.1,3.6,8.1,8.1C310.6,256.8,310.6,263.3,310.6,268.1z"
			/>
	</g>
	<g>
		<g>
			<path id="a2QKPf4T0f_1_" class="st5" d="M310.6,268.1c0,4.5-3.6,8.1-8.1,8.1c-27.1,0-100.4,0-127.5,0c-4.5,0-8.1-3.6-8.1-8.1
				c0-4.9,0-11.4,0-16.3c0-4.5,3.6-8.1,8.1-8.1c27.1,0,100.4,0,127.5,0c4.5,0,8.1,3.6,8.1,8.1C310.6,256.8,310.6,263.3,310.6,268.1z
				"/>
		</g>
	</g>
</g>
<g>
	<g>
		<path id="batkEo51g" class="st4" d="M310.6,331.9c0,4.5-3.6,8.1-8.1,8.1c-27.1,0-100.4,0-127.5,0c-4.5,0-8.1-3.6-8.1-8.1
			c0-4.9,0-11.4,0-16.3c0-4.5,3.6-8.1,8.1-8.1c27.1,0,100.4,0,127.5,0c4.5,0,8.1,3.6,8.1,8.1C310.6,320.5,310.6,327,310.6,331.9z"/>
	</g>
	<g>
		<g>
			<path id="batkEo51g_1_" class="st5" d="M310.6,331.9c0,4.5-3.6,8.1-8.1,8.1c-27.1,0-100.4,0-127.5,0c-4.5,0-8.1-3.6-8.1-8.1
				c0-4.9,0-11.4,0-16.3c0-4.5,3.6-8.1,8.1-8.1c27.1,0,100.4,0,127.5,0c4.5,0,8.1,3.6,8.1,8.1C310.6,320.5,310.6,327,310.6,331.9z"
				/>
		</g>
	</g>
</g>
<ellipse class="st6" cx="301.7" cy="197.9" rx="40" ry="35.1"/>
<path class="st7" d="M250.5,360.1c83.8-7.4,98.9-82,98.9-82s-48.6,41.8-104.5,45.8c-71.6,6.3-106.9-18.8-106.9-18.8
	S166.7,367.4,250.5,360.1z"/>
<circle class="st8" cx="309.2" cy="196.3" r="7.5"/>
<ellipse class="st6" cx="178" cy="196.3" rx="40" ry="35.1"/>
<circle class="st8" cx="185.5" cy="194.7" r="7.5"/>
<path class="st9" d="M120.9,135.9c65.9-14.3,83.7,6.4,83.7,6.4s-20.2,8-40.5,3S120.9,135.9,120.9,135.9z"/>
<path class="st9" d="M343.5,143.3c-66.1-13.3-83.6,7.7-83.6,7.7s20.3,7.7,40.5,2.4S343.5,143.3,343.5,143.3z"/>
</svg>
