<?xml version="1.0" encoding="UTF-8" standalone="no"?>
<!DOCTYPE svg PUBLIC "-//W3C//DTD SVG 1.1//EN" "http://www.w3.org/Graphics/SVG/1.1/DTD/svg11.dtd">
<svg version="1.1" xmlns="http://www.w3.org/2000/svg" xmlns:xlink="http://www.w3.org/1999/xlink" preserveAspectRatio="xMidYMid meet" viewBox="0 0 480 480" width="480" height="480"><defs><path d="M241.84 44.98C246.26 36.32 252.55 28.82 260.23 23.05C262.37 21.44 261.87 21.81 265.2 19.31C268.93 16.51 273.43 15 278.05 15C280.63 15 280.79 15 283.25 15C285.78 15 286.89 18.28 284.9 19.88C280.11 23.76 276.05 27.05 272.32 30.06C265.14 35.87 260.94 44.75 260.94 54.15C260.94 55.88 260.94 60.2 260.94 67.12C260.01 67.07 255.34 66.82 246.94 66.35C237.34 66.35 232.01 66.35 230.94 66.35C236.76 54.95 240.39 47.83 241.84 44.98Z" id="e6hduhvNRQ"></path><path d="M241.84 44.98C246.26 36.32 252.55 28.82 260.23 23.05C262.37 21.44 261.87 21.81 265.2 19.31C268.93 16.51 273.43 15 278.05 15C280.63 15 280.79 15 283.25 15C285.78 15 286.89 18.28 284.9 19.88C280.11 23.76 276.05 27.05 272.32 30.06C265.14 35.87 260.94 44.75 260.94 54.15C260.94 55.88 260.94 60.2 260.94 67.12C260.01 67.07 255.34 66.82 246.94 66.35C237.34 66.35 232.01 66.35 230.94 66.35C236.76 54.95 240.39 47.83 241.84 44.98Z" id="f9iuKxbDAF"></path><path d="M215.11 436.28C224.06 438.72 232.21 443.45 238.76 450C238.76 450 238.76 450 238.76 450C238.76 450 238.76 450 238.76 450C245.31 443.45 253.46 438.72 262.4 436.28C281.67 431.02 259.67 437.02 262.4 436.28C320.76 420.36 363.85 370.95 371.68 310.96C375.09 284.77 381.69 234.18 387.42 190.23C388.16 184.59 384.17 179.43 378.52 178.72C350.17 175.18 370.94 177.77 366.48 177.22C280.34 166.45 193.18 166.6 107.07 177.65C103.41 178.12 126.69 175.13 99.18 178.66C93.43 179.4 89.37 184.67 90.12 190.42C95.85 234.33 102.42 284.77 105.84 310.96C113.66 370.95 156.75 420.36 215.11 436.28C217.84 437.02 195.84 431.02 215.11 436.28Z" id="j1FQ3xl6R"></path><path d="M215.11 436.28C224.06 438.72 232.21 443.45 238.76 450C238.76 450 238.76 450 238.76 450C238.76 450 238.76 450 238.76 450C245.31 443.45 253.46 438.72 262.4 436.28C281.67 431.02 259.67 437.02 262.4 436.28C320.76 420.36 363.85 370.95 371.68 310.96C375.09 284.77 381.69 234.18 387.42 190.23C388.16 184.59 384.17 179.43 378.52 178.72C350.17 175.18 370.94 177.77 366.48 177.22C280.34 166.45 193.18 166.6 107.07 177.65C103.41 178.12 126.69 175.13 99.18 178.66C93.43 179.4 89.37 184.67 90.12 190.42C95.85 234.33 102.42 284.77 105.84 310.96C113.66 370.95 156.75 420.36 215.11 436.28C217.84 437.02 195.84 431.02 215.11 436.28Z" id="h2ChX7kyB8"></path><path d="M340.1 81.72C370 87.87 392.88 112.7 397.2 143.71C397.76 147.75 396.96 142.01 398.7 154.52C399.35 159.23 395.47 163.29 390.87 162.69C360.7 158.82 374.85 160.64 368.56 159.84C283.19 148.87 196.81 148.87 111.43 159.84C105.15 160.64 119.31 158.82 89.14 162.69C84.54 163.29 80.64 159.22 81.3 154.5C83.04 142 82.14 148.49 82.67 144.65C87.06 113.08 110.35 87.79 140.79 81.54C160.63 77.47 170.89 75.36 191.11 71.2C223.38 64.58 256.61 64.58 288.89 71.2C309.11 75.36 320.08 77.61 340.1 81.72Z" id="f1cBCfHcs3"></path><path d="M340.1 81.72C370 87.87 392.88 112.7 397.2 143.71C397.76 147.75 396.96 142.01 398.7 154.52C399.35 159.23 395.47 163.29 390.87 162.69C360.7 158.82 374.85 160.64 368.56 159.84C283.19 148.87 196.81 148.87 111.43 159.84C105.15 160.64 119.31 158.82 89.14 162.69C84.54 163.29 80.64 159.22 81.3 154.5C83.04 142 82.14 148.49 82.67 144.65C87.06 113.08 110.35 87.79 140.79 81.54C160.63 77.47 170.89 75.36 191.11 71.2C223.38 64.58 256.61 64.58 288.89 71.2C309.11 75.36 320.08 77.61 340.1 81.72Z" id="a245STpt4g"></path><path d="M328.77 359.84C328.77 370.97 319.74 380 308.61 380C276.64 380 200.9 380 168.93 380C157.8 380 148.77 370.97 148.77 359.84C148.77 313.87 148.77 196.84 148.77 151.05C148.77 139.42 158.19 130 169.82 130C201.61 130 275.93 130 307.72 130C319.35 130 328.77 139.42 328.77 151.05C328.77 196.84 328.77 313.87 328.77 359.84Z" id="a4gF6D0tEa"></path><path d="M328.77 359.84C328.77 370.97 319.74 380 308.61 380C276.64 380 200.9 380 168.93 380C157.8 380 148.77 370.97 148.77 359.84C148.77 313.87 148.77 196.84 148.77 151.05C148.77 139.42 158.19 130 169.82 130C201.61 130 275.93 130 307.72 130C319.35 130 328.77 139.42 328.77 151.05C328.77 196.84 328.77 313.87 328.77 359.84Z" id="a3zgZ9Jbw7"></path><path d="M310.65 204.38C310.65 208.86 307.01 212.5 302.52 212.5C275.4 212.5 202.15 212.5 175.02 212.5C170.53 212.5 166.9 208.86 166.9 204.38C166.9 199.5 166.9 193 166.9 188.13C166.9 183.64 170.53 180 175.02 180C202.15 180 275.4 180 302.52 180C307.01 180 310.65 183.64 310.65 188.13C310.65 193 310.65 199.5 310.65 204.38Z" id="b4Go9BulPy"></path><path d="M310.65 204.38C310.65 208.86 307.01 212.5 302.52 212.5C275.4 212.5 202.15 212.5 175.02 212.5C170.53 212.5 166.9 208.86 166.9 204.38C166.9 199.5 166.9 193 166.9 188.13C166.9 183.64 170.53 180 175.02 180C202.15 180 275.4 180 302.52 180C307.01 180 310.65 183.64 310.65 188.13C310.65 193 310.65 199.5 310.65 204.38Z" id="c7znm85Uv"></path><path d="M310.65 204.38C310.65 208.86 307.01 212.5 302.52 212.5C275.4 212.5 202.15 212.5 175.02 212.5C170.53 212.5 166.9 208.86 166.9 204.38C166.9 199.5 166.9 193 166.9 188.13C166.9 183.64 170.53 180 175.02 180C202.15 180 275.4 180 302.52 180C307.01 180 310.65 183.64 310.65 188.13C310.65 193 310.65 199.5 310.65 204.38Z" id="bqW5c6me8"></path><path d="M310.65 268.13C310.65 272.61 307.01 276.25 302.52 276.25C275.4 276.25 202.15 276.25 175.02 276.25C170.53 276.25 166.9 272.61 166.9 268.13C166.9 263.25 166.9 256.75 166.9 251.88C166.9 247.39 170.53 243.75 175.02 243.75C202.15 243.75 275.4 243.75 302.52 243.75C307.01 243.75 310.65 247.39 310.65 251.88C310.65 256.75 310.65 263.25 310.65 268.13Z" id="a2QKPf4T0f"></path><path d="M310.65 268.13C310.65 272.61 307.01 276.25 302.52 276.25C275.4 276.25 202.15 276.25 175.02 276.25C170.53 276.25 166.9 272.61 166.9 268.13C166.9 263.25 166.9 256.75 166.9 251.88C166.9 247.39 170.53 243.75 175.02 243.75C202.15 243.75 275.4 243.75 302.52 243.75C307.01 243.75 310.65 247.39 310.65 251.88C310.65 256.75 310.65 263.25 310.65 268.13Z" id="cO8O8malT"></path><path d="M310.65 268.13C310.65 272.61 307.01 276.25 302.52 276.25C275.4 276.25 202.15 276.25 175.02 276.25C170.53 276.25 166.9 272.61 166.9 268.13C166.9 263.25 166.9 256.75 166.9 251.88C166.9 247.39 170.53 243.75 175.02 243.75C202.15 243.75 275.4 243.75 302.52 243.75C307.01 243.75 310.65 247.39 310.65 251.88C310.65 256.75 310.65 263.25 310.65 268.13Z" id="aoJk4GiZZ"></path><path d="M310.65 331.88C310.65 336.36 307.01 340 302.52 340C275.4 340 202.15 340 175.02 340C170.53 340 166.9 336.36 166.9 331.88C166.9 327 166.9 320.5 166.9 315.63C166.9 311.14 170.53 307.5 175.02 307.5C202.15 307.5 275.4 307.5 302.52 307.5C307.01 307.5 310.65 311.14 310.65 315.63C310.65 320.5 310.65 327 310.65 331.88Z" id="batkEo51g"></path><path d="M310.65 331.88C310.65 336.36 307.01 340 302.52 340C275.4 340 202.15 340 175.02 340C170.53 340 166.9 336.36 166.9 331.88C166.9 327 166.9 320.5 166.9 315.63C166.9 311.14 170.53 307.5 175.02 307.5C202.15 307.5 275.4 307.5 302.52 307.5C307.01 307.5 310.65 311.14 310.65 315.63C310.65 320.5 310.65 327 310.65 331.88Z" id="b3Srg204F"></path><path d="M310.65 331.88C310.65 336.36 307.01 340 302.52 340C275.4 340 202.15 340 175.02 340C170.53 340 166.9 336.36 166.9 331.88C166.9 327 166.9 320.5 166.9 315.63C166.9 311.14 170.53 307.5 175.02 307.5C202.15 307.5 275.4 307.5 302.52 307.5C307.01 307.5 310.65 311.14 310.65 315.63C310.65 320.5 310.65 327 310.65 331.88Z" id="f1n9Zbr8iT"></path></defs><g><g><g><use xlink:href="#e6hduhvNRQ" opacity="1" fill="#000000" fill-opacity="0"></use><g><use xlink:href="#e6hduhvNRQ" opacity="1" fill-opacity="0" stroke="#ded2ba" stroke-width="10" stroke-opacity="0.14"></use></g></g><g><use xlink:href="#f9iuKxbDAF" opacity="1" fill="#000000" fill-opacity="0"></use><g><use xlink:href="#f9iuKxbDAF" opacity="1" fill-opacity="0" stroke="#ded2ba" stroke-width="10" stroke-opacity="0.14"></use></g></g><g><use xlink:href="#j1FQ3xl6R" opacity="1" fill="#000000" fill-opacity="0"></use><g><use xlink:href="#j1FQ3xl6R" opacity="1" fill-opacity="0" stroke="#ded2ba" stroke-width="10" stroke-opacity="0.14"></use></g></g><g><use xlink:href="#h2ChX7kyB8" opacity="1" fill="#000000" fill-opacity="0"></use><g><use xlink:href="#h2ChX7kyB8" opacity="1" fill-opacity="0" stroke="#ded2ba" stroke-width="10" stroke-opacity="0.14"></use></g></g><g><use xlink:href="#f1cBCfHcs3" opacity="1" fill="#000000" fill-opacity="0"></use><g><use xlink:href="#f1cBCfHcs3" opacity="1" fill-opacity="0" stroke="#ded2ba" stroke-width="10" stroke-opacity="0.14"></use></g></g><g><use xlink:href="#a245STpt4g" opacity="1" fill="#000000" fill-opacity="0"></use><g><use xlink:href="#a245STpt4g" opacity="1" fill-opacity="0" stroke="#ded2ba" stroke-width="10" stroke-opacity="0.14"></use></g></g><g><use xlink:href="#a4gF6D0tEa" opacity="1" fill="#000000" fill-opacity="0"></use><g><use xlink:href="#a4gF6D0tEa" opacity="1" fill-opacity="0" stroke="#ded2ba" stroke-width="10" stroke-opacity="0.14"></use></g></g><g><use xlink:href="#a3zgZ9Jbw7" opacity="1" fill="#000000" fill-opacity="0"></use><g><use xlink:href="#a3zgZ9Jbw7" opacity="1" fill-opacity="0" stroke="#ded2ba" stroke-width="10" stroke-opacity="0.14"></use></g></g><g><use xlink:href="#b4Go9BulPy" opacity="1" fill="#000000" fill-opacity="0"></use><g><use xlink:href="#b4Go9BulPy" opacity="1" fill-opacity="0" stroke="#ded2ba" stroke-width="10" stroke-opacity="0.14"></use></g></g><g><use xlink:href="#c7znm85Uv" opacity="1" fill="#000000" fill-opacity="0"></use><g><use xlink:href="#c7znm85Uv" opacity="1" fill-opacity="0" stroke="#ded2ba" stroke-width="10" stroke-opacity="0.14"></use></g></g><g><use xlink:href="#bqW5c6me8" opacity="1" fill="#000000" fill-opacity="0"></use><g><use xlink:href="#bqW5c6me8" opacity="1" fill-opacity="0" stroke="#ded2ba" stroke-width="10" stroke-opacity="0.14"></use></g></g><g><use xlink:href="#a2QKPf4T0f" opacity="1" fill="#000000" fill-opacity="0"></use><g><use xlink:href="#a2QKPf4T0f" opacity="1" fill-opacity="0" stroke="#ded2ba" stroke-width="10" stroke-opacity="0.14"></use></g></g><g><use xlink:href="#cO8O8malT" opacity="1" fill="#000000" fill-opacity="0"></use><g><use xlink:href="#cO8O8malT" opacity="1" fill-opacity="0" stroke="#ded2ba" stroke-width="10" stroke-opacity="0.14"></use></g></g><g><use xlink:href="#aoJk4GiZZ" opacity="1" fill="#000000" fill-opacity="0"></use><g><use xlink:href="#aoJk4GiZZ" opacity="1" fill-opacity="0" stroke="#ded2ba" stroke-width="10" stroke-opacity="0.14"></use></g></g><g><use xlink:href="#batkEo51g" opacity="1" fill="#000000" fill-opacity="0"></use><g><use xlink:href="#batkEo51g" opacity="1" fill-opacity="0" stroke="#ded2ba" stroke-width="10" stroke-opacity="0.14"></use></g></g><g><use xlink:href="#b3Srg204F" opacity="1" fill="#000000" fill-opacity="0"></use><g><use xlink:href="#b3Srg204F" opacity="1" fill-opacity="0" stroke="#ded2ba" stroke-width="10" stroke-opacity="0.14"></use></g></g><g><use xlink:href="#f1n9Zbr8iT" opacity="1" fill="#000000" fill-opacity="0"></use><g><use xlink:href="#f1n9Zbr8iT" opacity="1" fill-opacity="0" stroke="#ded2ba" stroke-width="10" stroke-opacity="0.14"></use></g></g></g></g></svg>