<?xml version="1.0" encoding="utf-8"?>
<!-- Generator: Adobe Illustrator 24.0.1, SVG Export Plug-In . SVG Version: 6.00 Build 0)  -->
<svg version="1.1" id="Layer_1" xmlns="http://www.w3.org/2000/svg" xmlns:xlink="http://www.w3.org/1999/xlink" x="0px" y="0px"
	 viewBox="0 0 250 250" style="enable-background:new 0 0 250 250;" xml:space="preserve">
<style type="text/css">
	.st0{fill:#727272;stroke:#000000;stroke-width:5;stroke-miterlimit:10;}
	.st1{fill:none;stroke:#000000;stroke-width:5;stroke-miterlimit:10;}
</style>
<path class="st0" d="M126.14,39.9c0.02,0.02,0.03,0.05,0.05,0.08l4.63,6.78c1.53,1.78,2.38,4.04,2.4,6.38l0.04,4.07
	c0.01,1.43-0.32,2.84-0.95,4.12l-0.36,0.72c-0.93,1.87-0.49,4.12,1.07,5.5l1.56,0.69c4.12,1.8,7.34,5.28,8.6,9.59
	c0.1,0.35,0.18,0.67,0.22,0.96l0.5,9.34c0.69,4.34-0.62,8.77-3.57,12.03l-0.81,0.89c-1.56,1.73-1.23,4.43,0.7,5.73L145,110v50h15
	l3.02-60.37c0.08-1.66,0.12-3.32,0.12-4.97c0-23.7-8.46-46.68-23.95-64.76"/>
<path class="st0" d="M110.97,29.85C94.38,49.19,85.85,74.16,87.12,99.61l3.02,60.37h15v-50l4.78-3.22c1.93-1.3,2.26-4.01,0.7-5.73
	l-0.8-0.89c-2.95-3.26-4.27-7.69-3.57-12.04l0.5-9.34c0.05-0.28,0.12-0.61,0.22-0.96c1.26-4.32,4.48-7.79,8.6-9.6l1.56-0.69
	c1.56-1.38,2-3.63,1.07-5.5l-0.36-0.72c-0.64-1.28-0.96-2.69-0.95-4.12l0.04-4.07c0.02-2.34,0.87-4.6,2.4-6.37l5.83-6.76l2.84-0.25
	c5.93-1.33,10.75-5.84,11.88-11.81c1.91-10.08-6.27-18.82-16.2-17.87c-0.62,0.06-1.23,0.16-1.83,0.29
	c-6.78,1.54-11.33,7.95-11.05,14.89L110.97,29.85z"/>
<path class="st0" d="M104.6,231.5H89.4c-4.37,0-7.9-3.54-7.9-7.9V168.4c0-4.37,3.54-7.9,7.9-7.9h15.19c4.37,0,7.9,3.54,7.9,7.9
	v55.19C112.5,227.96,108.96,231.5,104.6,231.5z"/>
<line class="st0" x1="82" y1="170.5" x2="112.5" y2="170.5"/>
<line class="st0" x1="81.98" y1="185.11" x2="112.48" y2="185.11"/>
<line class="st0" x1="81.98" y1="200.11" x2="112.48" y2="200.11"/>
<line class="st1" x1="79.98" y1="215.11" x2="110.48" y2="215.11"/>
<path class="st0" d="M160.81,231.73h-15.19c-4.37,0-7.9-3.54-7.9-7.9v-55.19c0-4.37,3.54-7.9,7.9-7.9h15.19c4.37,0,7.9,3.54,7.9,7.9
	v55.19C168.71,228.2,165.17,231.73,160.81,231.73z"/>
<line class="st0" x1="138.21" y1="170.73" x2="168.71" y2="170.73"/>
<line class="st0" x1="138.2" y1="185.34" x2="168.7" y2="185.34"/>
<line class="st0" x1="138.2" y1="200.34" x2="168.7" y2="200.34"/>
<line class="st1" x1="136.2" y1="215.34" x2="166.7" y2="215.34"/>
</svg>
