<?xml version="1.0" encoding="UTF-8" standalone="no"?>
<!DOCTYPE svg PUBLIC "-//W3C//DTD SVG 1.1//EN" "http://www.w3.org/Graphics/SVG/1.1/DTD/svg11.dtd">
<svg version="1.1" xmlns="http://www.w3.org/2000/svg" xmlns:xlink="http://www.w3.org/1999/xlink" preserveAspectRatio="xMidYMid meet" viewBox="0 0 480 480" width="480" height="480"><defs><path d="M230.94 76.14C236.76 65.04 240.39 58.1 241.84 55.33C246.26 46.9 252.55 39.6 260.23 33.98C262.37 32.41 261.87 32.77 265.2 30.34C268.93 27.61 273.43 26.14 278.05 26.14C280.63 26.14 280.79 26.14 283.25 26.14C285.78 26.14 286.89 29.33 284.9 30.89C280.11 34.67 276.05 37.87 272.32 40.8C265.14 46.46 260.94 55.11 260.94 64.26C260.94 65.94 260.94 70.15 260.94 76.89C260.01 76.84 255.34 76.59 246.94 76.14C237.34 76.14 232.01 76.14 230.94 76.14Z" id="a1TMYRSNTp"></path><path d="M215.11 436.28C217.84 437.02 195.84 431.02 215.11 436.28C224.06 438.72 232.21 443.45 238.76 450C238.76 450 238.76 450 238.76 450C238.76 450 238.76 450 238.76 450C245.31 443.45 253.46 438.72 262.4 436.28C281.67 431.02 259.67 437.02 262.4 436.28C320.76 420.36 363.85 370.95 371.68 310.96C375.09 284.77 381.69 234.18 387.42 190.23C388.16 184.59 384.17 179.43 378.52 178.72C350.17 175.18 370.94 177.77 366.48 177.22C280.34 166.45 193.18 166.6 107.07 177.65C103.41 178.12 126.69 175.13 99.18 178.66C93.43 179.4 89.37 184.67 90.12 190.42C95.85 234.33 102.42 284.77 105.84 310.96C113.66 370.95 156.75 420.36 215.11 436.28Z" id="n2UalKR82M"></path><path d="M288.89 80.86C309.11 84.91 320.08 87.1 340.1 91.1C370 97.09 392.88 121.27 397.2 151.46C397.76 155.39 396.96 149.8 398.7 161.98C399.35 166.57 395.47 170.52 390.87 169.94C360.7 166.17 374.85 167.94 368.56 167.16C283.19 156.48 196.81 156.48 111.43 167.16C105.15 167.94 119.31 166.17 89.14 169.94C84.54 170.52 80.64 166.56 81.3 161.96C83.04 149.79 82.14 156.11 82.67 152.37C87.06 121.64 110.35 97.01 140.79 90.93C160.63 86.96 170.89 84.91 191.11 80.86C223.38 74.41 256.61 74.41 288.89 80.86Z" id="g3oIgJujg"></path><path d="M328.77 151.05C328.77 196.84 328.77 313.87 328.77 359.84C328.77 370.97 319.74 380 308.61 380C276.64 380 200.9 380 168.93 380C157.8 380 148.77 370.97 148.77 359.84C148.77 313.87 148.77 196.84 148.77 151.05C148.77 139.42 158.19 130 169.82 130C201.61 130 275.93 130 307.72 130C319.35 130 328.77 139.42 328.77 151.05Z" id="c7Q6CLA8h"></path><path d="M310.65 188.13C310.65 193 310.65 199.5 310.65 204.38C310.65 208.86 307.01 212.5 302.52 212.5C275.4 212.5 202.15 212.5 175.02 212.5C170.53 212.5 166.9 208.86 166.9 204.38C166.9 199.5 166.9 193 166.9 188.13C166.9 183.64 170.53 180 175.02 180C202.15 180 275.4 180 302.52 180C307.01 180 310.65 183.64 310.65 188.13Z" id="c4nOMpv6JH"></path><path d="M310.65 188.13C310.65 193 310.65 199.5 310.65 204.38C310.65 208.86 307.01 212.5 302.52 212.5C275.4 212.5 202.15 212.5 175.02 212.5C170.53 212.5 166.9 208.86 166.9 204.38C166.9 199.5 166.9 193 166.9 188.13C166.9 183.64 170.53 180 175.02 180C202.15 180 275.4 180 302.52 180C307.01 180 310.65 183.64 310.65 188.13Z" id="bUxvLLLRZ"></path><path d="M310.65 251.88C310.65 256.75 310.65 263.25 310.65 268.13C310.65 272.61 307.01 276.25 302.52 276.25C275.4 276.25 202.15 276.25 175.02 276.25C170.53 276.25 166.9 272.61 166.9 268.13C166.9 263.25 166.9 256.75 166.9 251.88C166.9 247.39 170.53 243.75 175.02 243.75C202.15 243.75 275.4 243.75 302.52 243.75C307.01 243.75 310.65 247.39 310.65 251.88Z" id="a2QmPHKTCu"></path><path d="M310.65 251.88C310.65 256.75 310.65 263.25 310.65 268.13C310.65 272.61 307.01 276.25 302.52 276.25C275.4 276.25 202.15 276.25 175.02 276.25C170.53 276.25 166.9 272.61 166.9 268.13C166.9 263.25 166.9 256.75 166.9 251.88C166.9 247.39 170.53 243.75 175.02 243.75C202.15 243.75 275.4 243.75 302.52 243.75C307.01 243.75 310.65 247.39 310.65 251.88Z" id="lElqBzeVp"></path><path d="M310.65 315.63C310.65 320.5 310.65 327 310.65 331.88C310.65 336.36 307.01 340 302.52 340C275.4 340 202.15 340 175.02 340C170.53 340 166.9 336.36 166.9 331.88C166.9 327 166.9 320.5 166.9 315.63C166.9 311.14 170.53 307.5 175.02 307.5C202.15 307.5 275.4 307.5 302.52 307.5C307.01 307.5 310.65 311.14 310.65 315.63Z" id="a92U4AmS"></path><path d="M310.65 315.63C310.65 320.5 310.65 327 310.65 331.88C310.65 336.36 307.01 340 302.52 340C275.4 340 202.15 340 175.02 340C170.53 340 166.9 336.36 166.9 331.88C166.9 327 166.9 320.5 166.9 315.63C166.9 311.14 170.53 307.5 175.02 307.5C202.15 307.5 275.4 307.5 302.52 307.5C307.01 307.5 310.65 311.14 310.65 315.63Z" id="dbNVkawrB"></path></defs><g><g><g><use xlink:href="#a1TMYRSNTp" opacity="1" fill="#000000" fill-opacity="0"></use><g><use xlink:href="#a1TMYRSNTp" opacity="1" fill-opacity="0" stroke="#000000" stroke-width="5" stroke-opacity="1"></use></g></g><g><use xlink:href="#n2UalKR82M" opacity="1" fill="#000000" fill-opacity="0"></use><g><use xlink:href="#n2UalKR82M" opacity="1" fill-opacity="0" stroke="#000000" stroke-width="5" stroke-opacity="1"></use></g></g><g><use xlink:href="#g3oIgJujg" opacity="1" fill="#000000" fill-opacity="0"></use><g><use xlink:href="#g3oIgJujg" opacity="1" fill-opacity="0" stroke="#000000" stroke-width="5" stroke-opacity="1"></use></g></g><g><use xlink:href="#c7Q6CLA8h" opacity="1" fill="#000000" fill-opacity="0"></use><g><use xlink:href="#c7Q6CLA8h" opacity="1" fill-opacity="0" stroke="#000000" stroke-width="5" stroke-opacity="1"></use></g></g><g><use xlink:href="#c4nOMpv6JH" opacity="1" fill="#a498d7" fill-opacity="1"></use><g><use xlink:href="#c4nOMpv6JH" opacity="1" fill-opacity="0" stroke="#000000" stroke-width="1" stroke-opacity="0"></use></g></g><g><use xlink:href="#bUxvLLLRZ" opacity="1" fill="#000000" fill-opacity="0"></use><g><use xlink:href="#bUxvLLLRZ" opacity="1" fill-opacity="0" stroke="#000000" stroke-width="5" stroke-opacity="1"></use></g></g><g><use xlink:href="#a2QmPHKTCu" opacity="1" fill="#a498d7" fill-opacity="1"></use><g><use xlink:href="#a2QmPHKTCu" opacity="1" fill-opacity="0" stroke="#000000" stroke-width="1" stroke-opacity="0"></use></g></g><g><use xlink:href="#lElqBzeVp" opacity="1" fill="#000000" fill-opacity="0"></use><g><use xlink:href="#lElqBzeVp" opacity="1" fill-opacity="0" stroke="#000000" stroke-width="5" stroke-opacity="1"></use></g></g><g><use xlink:href="#a92U4AmS" opacity="1" fill="#a498d7" fill-opacity="1"></use><g><use xlink:href="#a92U4AmS" opacity="1" fill-opacity="0" stroke="#000000" stroke-width="1" stroke-opacity="0"></use></g></g><g><use xlink:href="#dbNVkawrB" opacity="1" fill="#000000" fill-opacity="0"></use><g><use xlink:href="#dbNVkawrB" opacity="1" fill-opacity="0" stroke="#000000" stroke-width="5" stroke-opacity="1"></use></g></g></g></g></svg>