<?xml version="1.0" encoding="UTF-8" standalone="no"?>
<!DOCTYPE svg PUBLIC "-//W3C//DTD SVG 1.1//EN" "http://www.w3.org/Graphics/SVG/1.1/DTD/svg11.dtd">
<svg version="1.1" xmlns="http://www.w3.org/2000/svg" xmlns:xlink="http://www.w3.org/1999/xlink" preserveAspectRatio="xMidYMid meet" viewBox="0 0 250 250" width="250" height="250"><defs><path d="M122.99 29.01C125.34 24.66 128.69 20.9 132.78 18C133.92 17.19 133.65 17.37 135.42 16.12C137.41 14.71 139.8 13.95 142.26 13.95C143.63 13.95 143.72 13.95 145.03 13.95C146.37 13.95 146.96 15.6 145.9 16.4C143.36 18.35 141.2 20 139.21 21.52C135.39 24.44 133.15 28.9 133.15 33.62C133.15 34.49 133.15 36.66 133.15 40.14C132.66 40.12 130.17 39.99 125.7 39.75C120.6 39.75 117.76 39.75 117.19 39.75C120.29 34.03 122.22 30.44 122.99 29.01Z" id="a7uxKvZ19h"></path><path d="M122.99 29.01C125.34 24.66 128.69 20.9 132.78 18C133.92 17.19 133.65 17.37 135.42 16.12C137.41 14.71 139.8 13.95 142.26 13.95C143.63 13.95 143.72 13.95 145.03 13.95C146.37 13.95 146.96 15.6 145.9 16.4C143.36 18.35 141.2 20 139.21 21.52C135.39 24.44 133.15 28.9 133.15 33.62C133.15 34.49 133.15 36.66 133.15 40.14C132.66 40.12 130.17 39.99 125.7 39.75C120.6 39.75 117.76 39.75 117.19 39.75C120.29 34.03 122.22 30.44 122.99 29.01Z" id="b34ZaqltMI"></path><path d="M108.77 225.62C113.53 226.88 117.87 229.32 121.35 232.7C121.35 232.7 121.35 232.7 121.35 232.7C121.35 232.7 121.35 232.7 121.35 232.7C124.84 229.32 129.17 226.88 133.93 225.62C144.19 222.9 132.48 226 133.93 225.62C164.99 217.4 187.92 191.9 192.08 160.94C193.9 147.43 197.41 121.32 200.46 98.63C200.85 95.72 198.73 93.06 195.72 92.69C180.64 90.87 191.69 92.2 189.32 91.92C143.48 86.36 97.1 86.44 51.27 92.14C49.33 92.38 61.72 90.84 47.08 92.66C44.02 93.05 41.86 95.77 42.26 98.73C45.3 121.39 48.8 147.43 50.62 160.94C54.78 191.9 77.71 217.4 108.77 225.62C110.22 226 98.51 222.9 108.77 225.62Z" id="e1YJp55cUS"></path><path d="M108.77 225.62C113.53 226.88 117.87 229.32 121.35 232.7C121.35 232.7 121.35 232.7 121.35 232.7C121.35 232.7 121.35 232.7 121.35 232.7C124.84 229.32 129.17 226.88 133.93 225.62C144.19 222.9 132.48 226 133.93 225.62C164.99 217.4 187.92 191.9 192.08 160.94C193.9 147.43 197.41 121.32 200.46 98.63C200.85 95.72 198.73 93.06 195.72 92.69C180.64 90.87 191.69 92.2 189.32 91.92C143.48 86.36 97.1 86.44 51.27 92.14C49.33 92.38 61.72 90.84 47.08 92.66C44.02 93.05 41.86 95.77 42.26 98.73C45.3 121.39 48.8 147.43 50.62 160.94C54.78 191.9 77.71 217.4 108.77 225.62C110.22 226 98.51 222.9 108.77 225.62Z" id="d1f1vI1NId"></path><path d="M175.28 47.47C191.19 50.57 203.36 63.04 205.66 78.63C205.96 80.65 205.54 77.77 206.46 84.05C206.81 86.42 204.74 88.46 202.29 88.16C186.24 86.22 193.77 87.13 190.42 86.73C144.99 81.22 99.03 81.22 53.59 86.73C50.25 87.13 57.79 86.22 41.73 88.16C39.29 88.46 37.21 86.42 37.56 84.04C38.49 77.76 38.01 81.03 38.29 79.1C40.63 63.24 53.02 50.52 69.22 47.39C79.78 45.34 85.24 44.28 96 42.19C113.17 38.86 130.85 38.86 148.03 42.19C158.79 44.28 164.63 45.41 175.28 47.47Z" id="c4o3mmzayU"></path><path d="M175.28 46.84C191.19 49.94 203.36 62.41 205.66 78C205.96 80.02 205.54 77.14 206.46 83.42C206.81 85.79 204.74 87.83 202.29 87.53C186.24 85.59 193.77 86.5 190.42 86.1C144.99 80.59 99.03 80.59 53.59 86.1C50.25 86.5 57.79 85.59 41.73 87.53C39.29 87.83 37.21 85.79 37.56 83.41C38.49 77.13 38.01 80.39 38.29 78.46C40.63 62.61 53.02 49.89 69.22 46.76C79.78 44.71 85.24 43.65 96 41.56C113.17 38.23 130.85 38.23 148.03 41.56C158.79 43.65 164.63 44.78 175.28 46.84Z" id="a3WAfsRKOm"></path><path d="M169.25 186.17C169.25 191.91 164.44 196.57 158.52 196.57C141.51 196.57 101.21 196.57 84.19 196.57C78.27 196.57 73.46 191.91 73.46 186.17C73.46 162.44 73.46 102.05 73.46 78.41C73.46 72.41 78.48 67.55 84.67 67.55C101.58 67.55 141.13 67.55 158.05 67.55C164.24 67.55 169.25 72.41 169.25 78.41C169.25 102.05 169.25 162.44 169.25 186.17Z" id="aslN6UKBU"></path><path d="M169.25 186.17C169.25 191.91 164.44 196.57 158.52 196.57C141.51 196.57 101.21 196.57 84.19 196.57C78.27 196.57 73.46 191.91 73.46 186.17C73.46 162.44 73.46 102.05 73.46 78.41C73.46 72.41 78.48 67.55 84.67 67.55C101.58 67.55 141.13 67.55 158.05 67.55C164.24 67.55 169.25 72.41 169.25 78.41C169.25 102.05 169.25 162.44 169.25 186.17Z" id="c6l5oR1Rzp"></path><path d="M159.61 105.94C159.61 108.25 157.67 110.13 155.28 110.13C140.85 110.13 101.87 110.13 87.43 110.13C85.04 110.13 83.11 108.25 83.11 105.94C83.11 103.42 83.11 100.06 83.11 97.55C83.11 95.23 85.04 93.35 87.43 93.35C101.87 93.35 140.85 93.35 155.28 93.35C157.67 93.35 159.61 95.23 159.61 97.55C159.61 100.06 159.61 103.42 159.61 105.94Z" id="c1doilbPYl"></path><path d="M159.61 105.94C159.61 108.25 157.67 110.13 155.28 110.13C140.85 110.13 101.87 110.13 87.43 110.13C85.04 110.13 83.11 108.25 83.11 105.94C83.11 103.42 83.11 100.06 83.11 97.55C83.11 95.23 85.04 93.35 87.43 93.35C101.87 93.35 140.85 93.35 155.28 93.35C157.67 93.35 159.61 95.23 159.61 97.55C159.61 100.06 159.61 103.42 159.61 105.94Z" id="ceqv9xZM"></path><path d="M159.61 105.94C159.61 108.25 157.67 110.13 155.28 110.13C140.85 110.13 101.87 110.13 87.43 110.13C85.04 110.13 83.11 108.25 83.11 105.94C83.11 103.42 83.11 100.06 83.11 97.55C83.11 95.23 85.04 93.35 87.43 93.35C101.87 93.35 140.85 93.35 155.28 93.35C157.67 93.35 159.61 95.23 159.61 97.55C159.61 100.06 159.61 103.42 159.61 105.94Z" id="jOAT2F1An"></path><path d="M159.61 105.94C159.61 108.25 157.67 110.13 155.28 110.13C140.85 110.13 101.87 110.13 87.43 110.13C85.04 110.13 83.11 108.25 83.11 105.94C83.11 103.42 83.11 100.06 83.11 97.55C83.11 95.23 85.04 93.35 87.43 93.35C101.87 93.35 140.85 93.35 155.28 93.35C157.67 93.35 159.61 95.23 159.61 97.55C159.61 100.06 159.61 103.42 159.61 105.94Z" id="fpbHjMGqN"></path><path d="M159.61 138.84C159.61 141.15 157.67 143.03 155.28 143.03C140.85 143.03 101.87 143.03 87.43 143.03C85.04 143.03 83.11 141.15 83.11 138.84C83.11 136.32 83.11 132.96 83.11 130.45C83.11 128.13 85.04 126.26 87.43 126.26C101.87 126.26 140.85 126.26 155.28 126.26C157.67 126.26 159.61 128.13 159.61 130.45C159.61 132.96 159.61 136.32 159.61 138.84Z" id="d1s45vtNdr"></path><path d="M159.61 138.84C159.61 141.15 157.67 143.03 155.28 143.03C140.85 143.03 101.87 143.03 87.43 143.03C85.04 143.03 83.11 141.15 83.11 138.84C83.11 136.32 83.11 132.96 83.11 130.45C83.11 128.13 85.04 126.26 87.43 126.26C101.87 126.26 140.85 126.26 155.28 126.26C157.67 126.26 159.61 128.13 159.61 130.45C159.61 132.96 159.61 136.32 159.61 138.84Z" id="dzOmGSs9"></path><path d="M159.61 138.84C159.61 141.15 157.67 143.03 155.28 143.03C140.85 143.03 101.87 143.03 87.43 143.03C85.04 143.03 83.11 141.15 83.11 138.84C83.11 136.32 83.11 132.96 83.11 130.45C83.11 128.13 85.04 126.26 87.43 126.26C101.87 126.26 140.85 126.26 155.28 126.26C157.67 126.26 159.61 128.13 159.61 130.45C159.61 132.96 159.61 136.32 159.61 138.84Z" id="h2Nq034iAK"></path><path d="M159.61 138.84C159.61 141.15 157.67 143.03 155.28 143.03C140.85 143.03 101.87 143.03 87.43 143.03C85.04 143.03 83.11 141.15 83.11 138.84C83.11 136.32 83.11 132.96 83.11 130.45C83.11 128.13 85.04 126.26 87.43 126.26C101.87 126.26 140.85 126.26 155.28 126.26C157.67 126.26 159.61 128.13 159.61 130.45C159.61 132.96 159.61 136.32 159.61 138.84Z" id="b1yf44Zc9r"></path><path d="M159.61 171.74C159.61 174.05 157.67 175.93 155.28 175.93C140.85 175.93 101.87 175.93 87.43 175.93C85.04 175.93 83.11 174.05 83.11 171.74C83.11 169.22 83.11 165.87 83.11 163.35C83.11 161.03 85.04 159.16 87.43 159.16C101.87 159.16 140.85 159.16 155.28 159.16C157.67 159.16 159.61 161.03 159.61 163.35C159.61 165.87 159.61 169.22 159.61 171.74Z" id="hQpU28cAQ"></path><path d="M159.61 171.74C159.61 174.05 157.67 175.93 155.28 175.93C140.85 175.93 101.87 175.93 87.43 175.93C85.04 175.93 83.11 174.05 83.11 171.74C83.11 169.22 83.11 165.87 83.11 163.35C83.11 161.03 85.04 159.16 87.43 159.16C101.87 159.16 140.85 159.16 155.28 159.16C157.67 159.16 159.61 161.03 159.61 163.35C159.61 165.87 159.61 169.22 159.61 171.74Z" id="k3S4ezI6Hz"></path><path d="M159.61 171.74C159.61 174.05 157.67 175.93 155.28 175.93C140.85 175.93 101.87 175.93 87.43 175.93C85.04 175.93 83.11 174.05 83.11 171.74C83.11 169.22 83.11 165.87 83.11 163.35C83.11 161.03 85.04 159.16 87.43 159.16C101.87 159.16 140.85 159.16 155.28 159.16C157.67 159.16 159.61 161.03 159.61 163.35C159.61 165.87 159.61 169.22 159.61 171.74Z" id="b4y8lQ4Oc"></path><path d="M159.61 171.74C159.61 174.05 157.67 175.93 155.28 175.93C140.85 175.93 101.87 175.93 87.43 175.93C85.04 175.93 83.11 174.05 83.11 171.74C83.11 169.22 83.11 165.87 83.11 163.35C83.11 161.03 85.04 159.16 87.43 159.16C101.87 159.16 140.85 159.16 155.28 159.16C157.67 159.16 159.61 161.03 159.61 163.35C159.61 165.87 159.61 169.22 159.61 171.74Z" id="d24QUkRGEj"></path></defs><g><g><g><use xlink:href="#a7uxKvZ19h" opacity="1" fill="#000000" fill-opacity="0"></use><g><use xlink:href="#a7uxKvZ19h" opacity="1" fill-opacity="0" stroke="#000000" stroke-width="1" stroke-opacity="0"></use></g></g><g><use xlink:href="#b34ZaqltMI" opacity="1" fill="#b68500" fill-opacity="0.58"></use><g><use xlink:href="#b34ZaqltMI" opacity="1" fill-opacity="0" stroke="#b68500" stroke-width="5" stroke-opacity="1"></use></g></g><g><use xlink:href="#e1YJp55cUS" opacity="1" fill="#000000" fill-opacity="0"></use><g><use xlink:href="#e1YJp55cUS" opacity="1" fill-opacity="0" stroke="#ff8400" stroke-width="1" stroke-opacity="1"></use></g></g><g><use xlink:href="#d1f1vI1NId" opacity="1" fill="#ea7313" fill-opacity="0.51"></use><g><use xlink:href="#d1f1vI1NId" opacity="1" fill-opacity="0" stroke="#ff8400" stroke-width="5" stroke-opacity="1"></use></g></g><g><use xlink:href="#c4o3mmzayU" opacity="1" fill="#000000" fill-opacity="0"></use><g><use xlink:href="#c4o3mmzayU" opacity="1" fill-opacity="0" stroke="#ff8400" stroke-width="1" stroke-opacity="1"></use></g></g><g><use xlink:href="#a3WAfsRKOm" opacity="1" fill="#b65e00" fill-opacity="0.69"></use><g><use xlink:href="#a3WAfsRKOm" opacity="1" fill-opacity="0" stroke="#b65e00" stroke-width="5" stroke-opacity="1"></use></g></g><g><use xlink:href="#aslN6UKBU" opacity="1" fill="#000000" fill-opacity="0"></use><g><use xlink:href="#aslN6UKBU" opacity="1" fill-opacity="0" stroke="#ff8400" stroke-width="1" stroke-opacity="1"></use></g></g><g><use xlink:href="#c6l5oR1Rzp" opacity="1" fill="#1c8b96" fill-opacity="0.49"></use><g><use xlink:href="#c6l5oR1Rzp" opacity="1" fill-opacity="0" stroke="#00baff" stroke-width="5" stroke-opacity="1"></use></g></g><g><use xlink:href="#c1doilbPYl" opacity="1" fill="#a498d7" fill-opacity="1"></use><g><use xlink:href="#c1doilbPYl" opacity="1" fill-opacity="0" stroke="#000000" stroke-width="1" stroke-opacity="0"></use></g></g><g><use xlink:href="#ceqv9xZM" opacity="1" fill="#000000" fill-opacity="0"></use><g><use xlink:href="#ceqv9xZM" opacity="1" fill-opacity="0" stroke="#000000" stroke-width="1" stroke-opacity="0"></use></g></g><g><use xlink:href="#jOAT2F1An" opacity="1" fill="#000000" fill-opacity="0"></use><g><use xlink:href="#jOAT2F1An" opacity="1" fill-opacity="0" stroke="#000000" stroke-width="1" stroke-opacity="0"></use></g></g><g><use xlink:href="#fpbHjMGqN" opacity="1" fill="#000000" fill-opacity="0"></use><g><use xlink:href="#fpbHjMGqN" opacity="1" fill-opacity="0" stroke="#000000" stroke-width="5" stroke-opacity="1"></use></g></g><g><use xlink:href="#d1s45vtNdr" opacity="1" fill="#a498d7" fill-opacity="1"></use><g><use xlink:href="#d1s45vtNdr" opacity="1" fill-opacity="0" stroke="#000000" stroke-width="1" stroke-opacity="0"></use></g></g><g><use xlink:href="#dzOmGSs9" opacity="1" fill="#000000" fill-opacity="0"></use><g><use xlink:href="#dzOmGSs9" opacity="1" fill-opacity="0" stroke="#000000" stroke-width="1" stroke-opacity="0"></use></g></g><g><use xlink:href="#h2Nq034iAK" opacity="1" fill="#000000" fill-opacity="0"></use><g><use xlink:href="#h2Nq034iAK" opacity="1" fill-opacity="0" stroke="#000000" stroke-width="1" stroke-opacity="0"></use></g></g><g><use xlink:href="#b1yf44Zc9r" opacity="1" fill="#000000" fill-opacity="0"></use><g><use xlink:href="#b1yf44Zc9r" opacity="1" fill-opacity="0" stroke="#000000" stroke-width="5" stroke-opacity="1"></use></g></g><g><use xlink:href="#hQpU28cAQ" opacity="1" fill="#a498d7" fill-opacity="1"></use><g><use xlink:href="#hQpU28cAQ" opacity="1" fill-opacity="0" stroke="#000000" stroke-width="1" stroke-opacity="0"></use></g></g><g><use xlink:href="#k3S4ezI6Hz" opacity="1" fill="#000000" fill-opacity="0"></use><g><use xlink:href="#k3S4ezI6Hz" opacity="1" fill-opacity="0" stroke="#000000" stroke-width="1" stroke-opacity="0"></use></g></g><g><use xlink:href="#b4y8lQ4Oc" opacity="1" fill="#000000" fill-opacity="0"></use><g><use xlink:href="#b4y8lQ4Oc" opacity="1" fill-opacity="0" stroke="#000000" stroke-width="1" stroke-opacity="0"></use></g></g><g><use xlink:href="#d24QUkRGEj" opacity="1" fill="#000000" fill-opacity="0"></use><g><use xlink:href="#d24QUkRGEj" opacity="1" fill-opacity="0" stroke="#000000" stroke-width="5" stroke-opacity="1"></use></g></g></g></g></svg>